<svg width="9" height="13" fill="none" xmlns="http://www.w3.org/2000/svg"><path d="M5.514 12.975H3.107c-.402 0-.73-.283-.73-.631V7.648H.975c-.402 0-.73-.283-.73-.63V5.006c0-.348.328-.631.73-.631h1.404V3.367c0-.999.362-1.849 1.048-2.458.69-.611 1.653-.934 2.786-.934l1.835.002c.401 0 .728.284.728.63v1.869c0 .348-.327.63-.729.63l-1.236.001c-.377 0-.473.065-.493.085-.034.034-.074.128-.074.387v.796h1.71c.129 0 .254.027.36.08.232.11.376.322.376.55v2.013c0 .347-.328.63-.73.63H6.243v4.696c0 .348-.327.63-.73.63Zm-2.255-.762h2.103V7.307c0-.232.218-.42.486-.42h1.959v-1.75H5.849c-.268 0-.486-.189-.486-.42V3.578c0-.298.035-.636.294-.891.314-.308.81-.343 1.154-.343h1.084V.738L6.21.737c-1.82 0-2.952 1.008-2.952 2.63v1.35c0 .231-.218.42-.487.42H1.126v1.75h1.646c.269 0 .487.188.487.42v4.905ZM8.045.739Z" fill="#1C2D5A"/></svg>