<svg width="14" height="14" fill="none" xmlns="http://www.w3.org/2000/svg"><path d="M10.21 0H3.79C1.7 0 0 1.7 0 3.79v6.42C0 12.3 1.7 14 3.79 14h6.42C12.3 14 14 12.3 14 10.21V3.79C14 1.7 12.3 0 10.21 0Zm2.97 10.21a2.972 2.972 0 0 1-2.97 2.97H3.79a2.972 2.972 0 0 1-2.97-2.97V3.79A2.972 2.972 0 0 1 3.79.82h6.42a2.972 2.972 0 0 1 2.97 2.97v6.42Z" fill="#1C2D5A"/><path d="M7 3.172A3.832 3.832 0 0 0 3.174 7 3.832 3.832 0 0 0 7 10.828 3.832 3.832 0 0 0 10.829 7 3.832 3.832 0 0 0 7 3.172Zm0 6.835A3.01 3.01 0 0 1 3.994 7a3.01 3.01 0 0 1 3.008-3.007A3.01 3.01 0 0 1 10.008 7a3.01 3.01 0 0 1-3.007 3.007ZM10.92 1.812a1.132 1.132 0 0 0 0 2.263 1.132 1.132 0 0 0 0-2.262Zm0 1.442a.31.31 0 1 1 .002-.622.31.31 0 0 1-.001.622Z" fill="#1C2D5A"/></svg>