<svg width="12" height="11" fill="none" xmlns="http://www.w3.org/2000/svg"><g clip-path="url(#a)"><path d="M11.672 8.073 9.998 6.538c-.598-.548-1.615-.33-1.854.384-.18.493-.778.767-1.316.657-1.196-.274-2.811-1.7-3.11-2.85-.18-.494.18-1.042.717-1.207.778-.219 1.017-1.15.42-1.7L3.178.289c-.478-.384-1.196-.384-1.614 0L.428 1.329c-1.136 1.097.12 4.003 2.93 6.58 2.812 2.576 5.982 3.782 7.178 2.686l1.136-1.042c.419-.438.419-1.096 0-1.48Z" fill="#1C2D5A"/></g><defs><clipPath id="a"><path fill="#fff" d="M0 0h12v11H0z"/></clipPath></defs></svg>