<svg width="14" height="12" fill="none" xmlns="http://www.w3.org/2000/svg"><path d="M.277 10.43a8.125 8.125 0 0 0 4.362 1.258c2.28 0 4.37-.877 5.886-2.467a8.005 8.005 0 0 0 2.207-5.645c.55-.47 1.196-1.368 1.196-2.243a.438.438 0 0 0-.66-.377c-.516.303-.986.383-1.47.247C10.807.239 9.336.036 8.096.705c-1.084.583-1.687 1.65-1.632 2.817A7.25 7.25 0 0 1 1.762.954a.438.438 0 0 0-.715.058A3.049 3.049 0 0 0 .98 4.023a.455.455 0 0 0-.38.453c0 .916.411 1.757 1.075 2.33a.437.437 0 0 0-.112.454 3.14 3.14 0 0 0 1.777 1.904 5.094 5.094 0 0 1-2.774.463c-.458-.062-.683.553-.288.803Zm4.481-1.116a.438.438 0 0 0-.257-.784 2.282 2.282 0 0 1-1.792-.932c.198-.013.403-.043.597-.096.444-.12.423-.76-.028-.85a2.246 2.246 0 0 1-1.701-1.53c.22.055.444.085.667.09.443.002.61-.566.25-.803a2.174 2.174 0 0 1-.932-2.373A8.134 8.134 0 0 0 6.951 4.44a.437.437 0 0 0 .447-.535c-.277-1.201.394-2.043 1.114-2.43.713-.386 1.857-.506 2.735.414.26.275 1.14.286 1.588.181-.201.378-.51.737-.798.939a.437.437 0 0 0-.187.38 7.114 7.114 0 0 1-1.958 5.226c-1.349 1.416-3.214 2.196-5.253 2.196-.81 0-1.606-.132-2.357-.386a5.907 5.907 0 0 0 2.476-1.112Z" fill="#1C2D5A"/></svg>