<svg width="15" height="9" fill="none" xmlns="http://www.w3.org/2000/svg"><path d="M7.59 8.563c2.17 0 1.397-1.191 1.564-1.533-.002-.256-.005-.502.005-.652.138.034.462.177 1.132.741 1.035.905 1.299 1.444 2.135 1.444h1.538c.487 0 .741-.175.868-.322.122-.142.242-.391.111-.78-.343-.933-2.344-2.546-2.469-2.716.02-.031.05-.073.065-.094h-.002c.395-.453 1.903-2.41 2.125-3.194a.01.01 0 0 0 .001-.004c.12-.357.01-.59-.104-.72-.17-.196-.443-.295-.811-.295h-1.539c-.515 0-.905.224-1.103.634-.33.729-1.26 2.227-1.955 2.757a30.091 30.091 0 0 1 .004-1.75c.023-.832.095-1.642-.9-1.642H5.836c-.624 0-1.22.59-.574 1.292.564.614.203.956.325 2.66-.476-.441-1.32-1.633-1.918-3.157C3.503.82 3.249.438 2.534.438H.996C.373.438 0 .733 0 1.226c0 1.108 2.83 7.337 7.59 7.337ZM2.535 1.25c.136 0 .15 0 .25.247C3.396 3.06 4.77 5.37 5.771 5.37c.753 0 .753-.668.753-.92V2.444c-.042-.663-.32-.994-.503-1.194l2.192.002c.001.01-.012 2.218.006 2.753 0 .76.697 1.196 1.784.243 1.146-1.122 1.94-2.8 1.971-2.867.047-.098.088-.131.235-.131h1.545c0 .002 0 .003-.002.005-.14.569-1.528 2.381-1.993 2.944l-.02.027c-.205.29-.372.609.027 1.058.037.038.132.127.269.25.428.383 1.894 1.69 2.024 2.21-.086.013-.18.004-1.633.007-.31 0-.552-.401-1.475-1.208-.83-.7-1.369-.986-1.86-.986-.952 0-.882.67-.873 1.48.003.879-.004.6.003.656-.055.02-.215.057-.63.057-3.966 0-6.549-5.455-6.648-6.498.035-.003.508 0 1.591-.001Z" fill="#1C2D5A"/></svg>