<svg width="30" height="37" fill="none" xmlns="http://www.w3.org/2000/svg"><path d="M28.593 12.81a.955.955 0 0 1 .607.893V30.07H29a.763.763 0 0 1-.48.708l.073-17.969Zm0 0-6.83-2.665A7.2 7.2 0 0 0 20.8 3.82a7.12 7.12 0 0 0-2.534-2.22 7.066 7.066 0 0 0-6.53 0 7.12 7.12 0 0 0-2.534 2.22 7.2 7.2 0 0 0-.965 6.325L1.407 12.81a.955.955 0 0 0-.607.894V30.07l27.793-17.26Zm-8.82 10.632v.2a.949.949 0 0 0 .694-.302l1.904-2.034.92.602a.95.95 0 0 0 1.338-.314.963.963 0 0 0 .134-.489V16.09l2.53-.987v14.309l-11.34 4.427V19.53l2.866-1.119.676 4.977-.075.185a.942.942 0 0 0 .353.068v-.2Zm0 0a.749.749 0 0 0 .548-.238m-.549.238.55-.238m0 0 2.017-2.157-2.018 2.157Zm1.206-3.797-.802.857v-2.596l2.132-.832v2.5l-.114-.075a.95.95 0 0 0-1.216.146Zm-6.746-9.066 3.654-3.307a.957.957 0 0 0 .285-1.044.96.96 0 0 0-.868-.646.95.95 0 0 0-.694.265l-3.034 2.748-1.309-1.114a.95.95 0 0 0-1.345.113.963.963 0 0 0 .112 1.35l1.944 1.654a.95.95 0 0 0 1.255-.02Zm6.157 1.539 4.672 1.823-1.895.74-3.689-1.43c.341-.345.647-.725.912-1.133Zm-1.258 4.139-2.877-1.133c.48-.126.945-.303 1.388-.528l2.883 1.117-1.393.544Zm-4.68-13.281c1.027 0 2.031.306 2.886.882a5.228 5.228 0 0 1 1.915 2.35 5.27 5.27 0 0 1-1.127 5.706 5.186 5.186 0 0 1-2.661 1.432 5.163 5.163 0 0 1-3.003-.298 5.206 5.206 0 0 1-2.332-1.928 5.263 5.263 0 0 1 .648-6.61A5.185 5.185 0 0 1 15 2.738ZM4.387 13.703l2.096-.819 10.568 4.16-2.052.802-10.612-4.143Zm9.658 20.137L2.708 29.413V15.105l11.338 4.426V33.84Z" fill="url(#a)" stroke="url(#b)" stroke-width=".4"/><defs><linearGradient id="a" x1="4.5" y1="1" x2="15" y2="36" gradientUnits="userSpaceOnUse"><stop offset=".104" stop-color="#F09642"/><stop offset="1" stop-color="#F0DF42"/></linearGradient><linearGradient id="b" x1="5.667" y1="1" x2="26.855" y2="25.72" gradientUnits="userSpaceOnUse"><stop stop-color="#F09642"/><stop offset="1" stop-color="#F0DF42"/></linearGradient></defs></svg>