<svg width="37" height="35" fill="none" xmlns="http://www.w3.org/2000/svg"><g clip-path="url(#a)" stroke-width=".4"><path d="M26.994 24.093a2.992 2.992 0 0 0-2.35-1.114H18.94c-1.24 0-2.43-.316-3.444-.91-1.453-.853-3.796-1.998-6.707-2.61-2.63-.553-4.803.235-6.33 1.178-1.526.94-2.417 2.042-2.495 2.14l27.03 1.316Zm0 0 4.742-5.169c.993-1.25 2.608-2.01 4.295-2.01h.367c.266 0 .519.127.67.345m-10.074 6.834 10.073-6.834m0 0c.151.22.176.498.064.74l-4.444 9.552c-.998 2.148-3.028 3.765-5.426 4.332l-.77.182m10.576-14.806L26.492 32.065m0 0-4.536 1.716a10.134 10.134 0 0 1-3.579.647c-1.314 0-2.628-.25-3.846-.752l-5.705-2.345a22.427 22.427 0 0 0-6.428-1.585l.019-.2-.019.2-1.873-.177 25.967 2.496ZM1.407 28.104v-4.582c.688-.751 3.369-3.328 7.039-2.558 2.691.566 4.864 1.627 6.213 2.418 1.268.745 2.749 1.137 4.281 1.137h5.705c.746 0 1.334.572 1.334 1.251 0 .68-.589 1.251-1.334 1.251h-7.96c-1.184 0-2.355.18-3.476.533l-.03.01-.198.06.068.196.187.542.005.012.221.531.07.17.175-.056a9.897 9.897 0 0 1 2.979-.457h7.959c1.607 0 2.934-1.236 2.94-2.782l5.389-5.875.005-.005.004-.006a3.85 3.85 0 0 1 2.127-1.331l-3.89 8.36c-.794 1.71-2.418 3.008-4.344 3.464l-.82.194h-.001a.845.845 0 0 0-.102.03v.001l-4.586 1.735.07.187-.07-.187a8.534 8.534 0 0 1-6.203-.087L9.46 29.916a24.1 24.1 0 0 0-6.904-1.702l-1.15-.11Z" fill="url(#b)" stroke="url(#c)"/><path d="M20.55 16.354a.786.786 0 0 1-.4-.428 7.022 7.022 0 0 1-.378-1.904c-.063-1.047.099-2.378.996-3.514 1.306-1.654 3.731-2.363 7.126-2.184l-7.344 8.03Zm0 0c1.162.55 2.232.831 3.197.831m-3.197-.831 3.197.831m0 0c.809 0 1.542-.198 2.189-.598 1.517-.937 2.188-2.793 2.487-4.392.3-1.609.235-3.02.229-3.14l-4.905 8.13Zm4.904-8.13c-.02-.403-.356-.71-.757-.73l.758.73Zm-1.991 3.66c-.303 1.105-.805 2.09-1.593 2.577-.819.506-1.977.477-3.496-.18a5.783 5.783 0 0 1-.205-1.54c.007-.705.169-1.484.682-2.134.842-1.065 2.493-1.628 5.008-1.6-.017.792-.119 1.866-.396 2.877Z" fill="url(#d)" stroke="url(#e)"/><path d="M17.227 9.289a.791.791 0 0 0 .446-.382c1.14-2.207 1.25-4.093.22-5.553C16.805 1.808 14.666 1.14 12.825.85A18.834 18.834 0 0 0 9.208.646c-.402.023-.736.33-.756.733-.172 3.514.67 6.011 2.58 7.335 1.121.777 2.399.998 3.493.998 1.454 0 2.609-.39 2.702-.423Zm0 0L17.16 9.1m.066.189-.066-.189m0 0a8.75 8.75 0 0 1-2.636.412c-1.07 0-2.303-.216-3.379-.962L9.219.846C9.479.832 15.653.52 17.73 3.47c.967 1.373.888 3.17-.235 5.345a.592.592 0 0 1-.334.285Zm-.598-4.883c.61.867.587 2.094-.182 3.71a7.594 7.594 0 0 1-1.835.244c-.845.003-1.785-.16-2.574-.706-1.279-.886-1.953-2.638-1.936-5.298.928.003 2.217.093 3.436.379 1.317.308 2.501.833 3.091 1.671Z" fill="url(#f)" stroke="url(#g)"/><path d="M19.16 24.315h-.001c-.418-.038-.75-.384-.727-.806l.728.806Zm0 0a.87.87 0 0 0 .074.003m-.074-.003.074.003m-6.661-18.56a.759.759 0 0 1-.416-1.02l.416 1.02Zm0 0c3.054 1.264 4.632 4.188 5.412 7.342.779 3.147.75 6.478.626 8.489M12.573 5.757 18.61 21.59M13.209 4.343c3.795 1.57 6.149 5.47 6.856 11.192.03.248.058.494.081.737 1.666-3.47 3.941-4.732 4.109-4.821M13.209 4.343l11.828 8.453a.754.754 0 0 0 .305-1.053.822.822 0 0 0-1.087-.292M13.209 4.343c-.397-.164-.871.003-1.052.394l1.052-.394Zm11.046 7.108.094.177-.095-.177Zm-5.02 12.867a.793.793 0 0 0 .793-.663l-.794.663Zm-.624-2.729a23.362 23.362 0 0 0-.18 1.92l.18-1.92Z" fill="url(#h)" stroke="url(#i)"/></g><defs><linearGradient id="b" x1="4.625" y1="17.114" x2="6.671" y2="35.541" gradientUnits="userSpaceOnUse"><stop offset=".104" stop-color="#F09642"/><stop offset="1" stop-color="#F0DF42"/></linearGradient><linearGradient id="c" x1="6.167" y1="17.114" x2="12.209" y2="36.165" gradientUnits="userSpaceOnUse"><stop stop-color="#F09642"/><stop offset="1" stop-color="#F0DF42"/></linearGradient><linearGradient id="d" x1="21.023" y1="8.497" x2="23.119" y2="17.247" gradientUnits="userSpaceOnUse"><stop offset=".104" stop-color="#F09642"/><stop offset="1" stop-color="#F0DF42"/></linearGradient><linearGradient id="e" x1="21.377" y1="8.497" x2="26.225" y2="15.578" gradientUnits="userSpaceOnUse"><stop stop-color="#F09642"/><stop offset="1" stop-color="#F0DF42"/></linearGradient><linearGradient id="f" x1="9.851" y1=".83" x2="11.782" y2="9.882" gradientUnits="userSpaceOnUse"><stop offset=".104" stop-color="#F09642"/><stop offset="1" stop-color="#F0DF42"/></linearGradient><linearGradient id="g" x1="10.259" y1=".83" x2="14.985" y2="8.587" gradientUnits="userSpaceOnUse"><stop stop-color="#F09642"/><stop offset="1" stop-color="#F0DF42"/></linearGradient><linearGradient id="h" x1="13.908" y1="4.48" x2="20.783" y2="23.385" gradientUnits="userSpaceOnUse"><stop offset=".104" stop-color="#F09642"/><stop offset="1" stop-color="#F0DF42"/></linearGradient><linearGradient id="i" x1="14.447" y1="4.48" x2="26.469" y2="16.049" gradientUnits="userSpaceOnUse"><stop stop-color="#F09642"/><stop offset="1" stop-color="#F0DF42"/></linearGradient><clipPath id="a"><path fill="#fff" d="M0 0h37v35H0z"/></clipPath></defs></svg>