<svg width="28" height="37" fill="none" xmlns="http://www.w3.org/2000/svg"><path d="M13.188 21.755h-.218a1.061 1.061 0 0 1-.117-.007 9.082 9.082 0 0 1-6.223-2.79 8.73 8.73 0 0 1-2.425-6.288A8.75 8.75 0 0 1 7 6.532a9.104 9.104 0 0 1 6.387-2.431 9.09 9.09 0 0 1 6.283 2.68 8.737 8.737 0 0 1 2.54 6.243 8.745 8.745 0 0 1-2.68 6.187 9.098 9.098 0 0 1-6.34 2.544Zm0 0v-.2.2Zm13.704 5.74c.305.282.366.69.26 1.034a1.014 1.014 0 0 1-.796.715l-3.319.65-.663 3.25c-.07.406-.383.68-.728.783-.345.103-.758.044-1.046-.253l-2.96-2.9v4.389c.012.412-.24.742-.559.91a1.035 1.035 0 0 1-1.075-.048l-2.817-1.84-2.818 1.84c-.34.236-.756.215-1.075.047-.319-.167-.571-.497-.559-.91V24.278C4.101 22.521.8 18.106.8 12.944.8 6.244 6.361.8 13.19.8c6.827 0 12.388 5.444 12.388 12.144l1.315 14.552Zm0 0-5.537-5.426a12.145 12.145 0 0 0 3.07-4.015 11.923 11.923 0 0 0 1.152-5.11l1.315 14.552ZM13.77 32.084a1.063 1.063 0 0 0-1.162 0l-1.77 1.156v-8.37a12.66 12.66 0 0 0 4.702 0v8.37l-1.77-1.156Zm.67-17.51-.769-.39a1.064 1.064 0 0 0-.965 0l-.769.39.141-.83a1.017 1.017 0 0 0-.037-.491l-.19.063.19-.063a1.03 1.03 0 0 0-.263-.417l-.61-.588.85-.126a1.06 1.06 0 0 0 .783-.558l.387-.76.388.76.178-.09-.178.09c.076.149.187.277.323.374.136.097.294.16.46.185l.85.125-.61.588c-.12.116-.21.26-.263.417l.19.063-.19-.063a1.018 1.018 0 0 0-.037.49l.14.832Zm-8.138-1.629c0-1.333.404-2.636 1.16-3.745a6.857 6.857 0 0 1 3.09-2.485 7.02 7.02 0 0 1 3.98-.384 6.932 6.932 0 0 1 3.527 1.847 6.703 6.703 0 0 1 1.883 3.452 6.615 6.615 0 0 1-.391 3.895 6.776 6.776 0 0 1-2.535 3.027 6.99 6.99 0 0 1-8.696-.842 6.682 6.682 0 0 1-2.018-4.765Zm-3.4 0c0-5.553 4.61-10.077 10.287-10.077 5.676 0 10.287 4.524 10.287 10.077S18.865 23.022 13.19 23.022C7.512 23.022 2.9 18.497 2.9 12.944ZM21.94 28.002c-.203.04-.39.137-.537.281a1.028 1.028 0 0 0-.288.53l-.416 2.04-3.059-2.997v-3.579a12.459 12.459 0 0 0 2.001-.97l4.376 4.288-2.077.407Zm-8.752-11.738 2.148 1.092c.374.205.796.129 1.096-.085.3-.213.508-.587.424-1.005l-.395-2.333 1.72-1.66c.317-.289.374-.71.259-1.059a1.014 1.014 0 0 0-.84-.704l-2.39-.353-1.081-2.118c-.183-.385-.572-.566-.94-.566-.37 0-.758.182-.94.566l-1.081 2.118-2.392.353c-.425.05-.723.356-.839.704-.115.349-.058.77.259 1.058l1.72 1.66-.395 2.334c-.084.418.123.791.423 1.005.3.214.722.29 1.097.085l2.147-1.092Z" fill="url(#a)" stroke="url(#b)" stroke-width=".4"/><defs><linearGradient id="a" x1="4.25" y1="1" x2="15.411" y2="35.544" gradientUnits="userSpaceOnUse"><stop offset=".104" stop-color="#F09642"/><stop offset="1" stop-color="#F0DF42"/></linearGradient><linearGradient id="b" x1="5.334" y1="1" x2="26.706" y2="24.153" gradientUnits="userSpaceOnUse"><stop stop-color="#F09642"/><stop offset="1" stop-color="#F0DF42"/></linearGradient></defs></svg>