<svg width="62" height="63" fill="none" xmlns="http://www.w3.org/2000/svg"><g clip-path="url(#a)"><path d="M24.298 39.062c-.172-.022-1.345-2.398-1.345-2.398l-2.328-1.792-1.247 1.248-1.12 1.063a9.36 9.36 0 0 0-.858.977l-.128 2.283 3.093 1.46s4.105-2.818 3.933-2.84Z" fill="#FFE0D1"/><path d="m28.99 30.067-1.656-1.385a1.815 1.815 0 0 0-2.62.296c-.645.835-.517 2.055.285 2.726l1.657 1.386 1.174.955 2.677-2.637-1.516-1.34Z" fill="#FABC91"/><path d="M20.528 37.89c.264-.353.55-.69.863-1.006l.844-.821-1.515-1.191-1.282 1.31-1.152 1.117c-.32.322-.614.665-.883 1.026l-.131 2.397 1.591.768a9.7 9.7 0 0 1 1.665-3.6Z" fill="#FAA875"/><path d="m24.187 35.807-1.713-1.347a1.957 1.957 0 0 0-2.71.288 1.856 1.856 0 0 0 .295 2.65l1.714 1.346 2.214 1.919 2.384-3.042-2.184-1.814Z" fill="#FABC91"/><path d="m26.422 32.94-1.626-1.368c-.788-.663-1.939-.532-2.571.293-.633.824-.508 2.029.28 2.691l1.626 1.369 2.072 1.842 2.236-3.176-2.017-1.65Z" fill="#FABC91"/><path d="m30.507 31.366-1.518-1.362-1.102-.936-1.471 1.95a.392.392 0 0 1-.572.068l-.01-.008c-.803-.682-.93-1.922-.285-2.77.014-.019.03-.036.045-.054a1.873 1.873 0 0 0-.964.75c-.567.856-.374 2.038.397 2.692l1.624 1.378 1.176.97.556-.555 2.124-2.123ZM28.44 34.667l-2.02-1.61-1.068-.877-1.33 1.706a.455.455 0 0 1-.65.073l-.149-.123a1.898 1.898 0 0 1-.499-2.273c-.289.173-.543.434-.711.773-.396.794-.158 1.767.522 2.326l1.593 1.307 2.074 1.798.632-.875 1.605-2.225Z" fill="#FAA875"/><path d="m31.3 41.84-.694-.16a1.873 1.873 0 0 1 .414-3.697l3.923-.015a2.734 2.734 0 0 1 1.608.517l4.94 3.554c.542.392.99.898 1.312 1.483l1.844 3.354 6.546 5.261c.478.385.546 1.088.15 1.557l-7.275 8.605a1.092 1.092 0 0 1-1.518.147l-4.947-3.977-.27-.01a7.86 7.86 0 0 1-4.434-1.574l-3.098-2.33s-5.223-3.887-5.223-4.014c0-.094 4.394-5.724 6.721-8.7Z" fill="#FABC91"/><path d="m29.755 41.228 1.542-2.01-.672-.159a1.804 1.804 0 0 1-.913-.534l-.004.004a1.869 1.869 0 0 0 .047 2.7Z" fill="#F8D3AA"/><path d="m51.194 52.138-.891-.716-6.634 7.996a1.045 1.045 0 0 1-1.471.145l-4.59-3.76a.782.782 0 0 0-.465-.177 7.527 7.527 0 0 1-4.297-1.553l-3.001-2.3s-2.432-1.845-3.924-3.019c-.801 1.041-1.342 1.755-1.342 1.788 0 .126 5.223 4.014 5.223 4.014l3.098 2.33a7.861 7.861 0 0 0 4.434 1.573l.27.01 4.947 3.977a1.092 1.092 0 0 0 1.519-.146l7.274-8.605a1.092 1.092 0 0 0-.15-1.557Z" fill="#FAA875"/><path d="m36.51 50.603.337.243c.98.71 2.346.527 3.104-.416l3.949-4.913-1.097-1.995a4.5 4.5 0 0 0-1.312-1.482l-4.939-3.555a2.734 2.734 0 0 0-1.609-.517l-3.922.016c-.512.002-.976.21-1.314.545a1.873 1.873 0 0 0 .9 3.151l.693.161-1.29 1.65c.055.016.11.03.166.043l.695.161 2.215.512a9.25 9.25 0 0 0 3.425 6.396ZM26.26 37.775l-2.132-1.81-1.084-.872-1.192 1.496a.504.504 0 0 1-.71.079l-.207-.167a1.883 1.883 0 0 1-.615-2.033 1.876 1.876 0 0 0-.527.465c-.635.816-.463 2 .343 2.648l1.636 1.315 2.16 1.915.65-.847 1.678-2.19Z" fill="#FAA875"/><path d="m41.491 42.04-4.939-3.555a2.734 2.734 0 0 0-1.609-.517l-3.922.015c-.512.002-.976.21-1.314.546a1.873 1.873 0 0 0 .9 3.151l.693.16c-2.327 2.977-6.721 8.607-6.721 8.701 0 .127 5.222 4.014 5.222 4.014l1.112.836c.18-.185.353-.38.517-.583l10.186-12.674c-.042-.032-.082-.064-.125-.095Z" fill="#FAA875"/><path d="M41.352 36.979a2.01 2.01 0 0 0-2.824.307 2.006 2.006 0 0 0-.307-2.824 2.01 2.01 0 0 0-2.824.307 2.006 2.006 0 0 0-.306-2.823 2.009 2.009 0 0 0-2.825.307 2.008 2.008 0 1 0-3.131-2.516l-5.898 7.338-2.66 3.334-3.11-2.102a9.234 9.234 0 0 0-1.852 4.894l-.275 3.7-5.233 6.509a.978.978 0 0 0 .126 1.355l9.192 7.883c.42.36 1.053.301 1.4-.13l4.746-5.906c.098-.12.24-.2.393-.223a6.805 6.805 0 0 0 4.353-2.475L41.66 39.803a2.004 2.004 0 0 0-.307-2.824Z" fill="#FABC91"/><path d="M13.386 54.032a.961.961 0 0 1-.123-1.328l5.111-6.382.269-3.627a9.067 9.067 0 0 1 .781-3.065l-1.957-1.323a9.234 9.234 0 0 0-1.852 4.894l-.275 3.7-5.233 6.509a.978.978 0 0 0 .126 1.355l9.192 7.883c.42.36 1.053.301 1.4-.13l.989-1.23-8.428-7.255ZM37.665 36.942a4.61 4.61 0 0 0-2.713-.877l-3.938.016c-1 .003-1.94.394-2.65 1.098a3.754 3.754 0 0 0-1.112 2.645 3.753 3.753 0 0 0 2.924 3.71l.695.161 2.214.512a9.25 9.25 0 0 0 1.54 4.346l7.027-8.742-3.987-2.87Z" fill="#FAA875"/><path d="m42.803 43.523 1.356 2.468-3.873 4.979-2.05-1.42-.532-.429a7.369 7.369 0 0 1-2.751-5.574l-.02-.865-3.634-.84-.694-.161a1.873 1.873 0 0 1 .415-3.697l3.922-.015a2.734 2.734 0 0 1 1.61.516l4.938 3.555c.543.391.99.897 1.313 1.483Z" fill="#FABC91"/><path d="M35.226 7.952c-2.552-.884-5.073-.886-7.562-.006a1.075 1.075 0 0 0-.6 1.479l3.422 7.138a1.07 1.07 0 0 0 1.93 0l3.42-7.128a1.076 1.076 0 0 0-.61-1.483Z" fill="url(#b)"/><path d="M57.36 18.53c-1.347-2.33-3.212-3.958-5.597-4.885-.573-.223-1.205.132-1.354.753l-1.855 7.718c-.21.878.643 1.621 1.43 1.246l6.916-3.295c.56-.267.778-.987.46-1.537Z" fill="url(#c)"/><path d="M5.539 18.53c1.346-2.33 3.212-3.958 5.596-4.885.574-.223 1.206.132 1.355.753l1.854 7.718c.211.878-.642 1.621-1.43 1.246l-6.916-3.295c-.56-.267-.778-.987-.46-1.537Z" fill="url(#d)"/><path d="m20.674 40.398 1.147-1.347-1.183-.87-1.133 1.33a.682.682 0 0 0 .138 1.013.78.78 0 0 0 1.031-.126Z" fill="#FAA875"/></g><defs><linearGradient id="b" x1="35.752" y1="16.416" x2="26.586" y2="-.525" gradientUnits="userSpaceOnUse"><stop stop-color="#F09642"/><stop offset="1" stop-color="#F4E26E"/></linearGradient><linearGradient id="c" x1="49.19" y1="16.897" x2="54.766" y2="25.129" gradientUnits="userSpaceOnUse"><stop stop-color="#272671"/><stop offset="1" stop-color="#7BB3CB"/></linearGradient><linearGradient id="d" x1="6.06" y1="16.897" x2="11.635" y2="25.129" gradientUnits="userSpaceOnUse"><stop stop-color="#272671"/><stop offset="1" stop-color="#7BB3CB"/></linearGradient><clipPath id="a"><path fill="#fff" transform="translate(0 .998)" d="M0 0h62v62H0z"/></clipPath></defs></svg>