<svg width="55" height="59" fill="none" xmlns="http://www.w3.org/2000/svg"><path d="M34.655 29.498c7.908 0 14.32-6.411 14.32-14.32C48.974 7.27 42.562.86 34.654.86s-14.32 6.411-14.32 14.32c0 7.908 6.412 14.319 14.32 14.319Z" fill="#FCCF23"/><path d="M35.816 14.154V8.607a2.831 2.831 0 0 1 1.67 2.576 1.163 1.163 0 0 0 2.325 0 5.163 5.163 0 0 0-3.995-5.02V5.05a1.162 1.162 0 0 0-2.325 0v1.114a5.152 5.152 0 0 0 0 10.04v5.547a2.832 2.832 0 0 1-1.67-2.577 1.162 1.162 0 0 0-2.325 0 5.163 5.163 0 0 0 3.995 5.02v1.113a1.162 1.162 0 0 0 2.325 0v-1.113a5.151 5.151 0 0 0 0-10.04Zm-3.995-2.97a2.831 2.831 0 0 1 1.67-2.577v5.152a2.83 2.83 0 0 1-1.67-2.576Zm3.995 10.567v-5.154a2.823 2.823 0 0 1 0 5.154Z" fill="#FCA40B"/><path d="M.484 34.842h10.447v22.836H.484V34.842Z" fill="url(#a)"/><path d="M10.93 38.951a13.165 13.165 0 0 1 15.393-.176l.195.138h7.065a6.574 6.574 0 0 1 6.574 6.574l11.059-8.414a2.053 2.053 0 0 1 2.822 2.945L42.35 54.112a11.122 11.122 0 0 1-11.867 3.52l-12.5-3.89-7.053.2v-14.99Z" fill="#FABC91"/><path d="M40.159 46.648H27.308a1.162 1.162 0 1 1 0-2.324h12.85a1.162 1.162 0 0 1 0 2.324Z" fill="#FAA875"/><defs><linearGradient id="a" x1="1.261" y1="42.511" x2="14.542" y2="52.378" gradientUnits="userSpaceOnUse"><stop stop-color="#272671"/><stop offset="1" stop-color="#7BB3CB"/></linearGradient></defs></svg>