<svg width="45" height="55" fill="none" xmlns="http://www.w3.org/2000/svg"><path d="M3.373.998C13.62 1.996 21.119 11.112 20.12 21.36l-1.566 16.081C8.307 36.443.81 27.327 1.807 17.08L3.373.998Z" fill="url(#a)"/><path d="M44.405 18.644C32.675 16.903 21.754 25 20.012 36.731L17.8 51.635c11.73 1.741 22.652-6.356 24.393-18.087l2.213-14.904Z" fill="url(#b)"/><mask id="d" mask-type="alpha" maskUnits="userSpaceOnUse" x="17" y="18" width="28" height="34"><path d="M44.405 18.644C32.675 16.903 21.754 25 20.012 36.731L17.8 51.635c11.73 1.741 22.652-6.356 24.393-18.087l2.213-14.904Z" fill="url(#c)"/></mask><g mask="url(#d)"><path d="M38.159 32.818c1.83-2.957 4.789-7.953 6.231-14.909 2.38 6.454.94 31.493-4.819 31.298-5.758-.196-22.241 11.047-21.985 3.506-.462-11.92 16.263-12.936 20.573-19.895Z" fill="url(#e)"/></g><defs><linearGradient id="a" x1="18.421" y1="34.755" x2="-15.758" y2="-10.609" gradientUnits="userSpaceOnUse"><stop stop-color="#F09642"/><stop offset="1" stop-color="#F4E26E"/></linearGradient><linearGradient id="b" x1="17.799" y1="51.534" x2="53.842" y2="7.412" gradientUnits="userSpaceOnUse"><stop stop-color="#F09642"/><stop offset="1" stop-color="#F0DF42" stop-opacity=".85"/></linearGradient><linearGradient id="c" x1="17.799" y1="51.534" x2="41.414" y2="15.491" gradientUnits="userSpaceOnUse"><stop stop-color="#F09642"/><stop offset="1" stop-color="#F4E26E"/></linearGradient><linearGradient id="e" x1="26.665" y1="52.701" x2="54.72" y2="41.562" gradientUnits="userSpaceOnUse"><stop stop-color="#272671"/><stop offset="1" stop-color="#7BB3CB"/></linearGradient></defs></svg>