<svg width="108" height="67" fill="none" xmlns="http://www.w3.org/2000/svg"><path d="M80 34.757c0 21.317-16.816 31.856-38.49 31.856C19.834 66.613 0 50.075 0 28.758 0 7.442 10.566.614 20.377.613c9.386 0 17.624 8.79 25.66 12.619C56.562 18.245 80 22.67 80 34.757Z" fill="url(#a)"/><path d="M27.132 19.927c-.752.1-1.332.702-1.332 1.435v10.124c-.008 2.036 1.332 3.857 3.357 4.6l4.372 1.623c.182.068.376.102.571.102h.348c.858 2.142 2.7 3.816 5.022 4.57 4.25 1.38 8.916-.65 10.483-4.57h35.795c.858 2.142 2.7 3.816 5.022 4.57 4.25 1.38 8.916-.65 10.484-4.57h4.396c.841 0 1.55-.635 1.55-1.45v-7.422c-.003-2.12-1.23-4.07-3.203-5.117h-.001c-4.721-2.492-10.049-3.834-15.481-3.898l-4.587-2.316c-6.752-3.404-14.316-5.19-22.002-5.195h-1.592v.2c-6.488-.006-12.9 1.272-18.809 3.75l-14.393 3.564Zm0 0 9.132-1.208-9.132 1.208ZM88.3 35.11c0-2.27 1.726-4.243 4.156-4.703 2.828-.535 5.568 1.157 6.14 3.744.57 2.582-1.227 5.125-4.052 5.66-2.828.535-5.568-1.157-6.14-3.744l-.104-.957Zm0 0c0 .321.035.642.105.957l-.105-.957Zm-59.6-3.624v-4.925h.2m-.2 4.925 4.05-5.125H28.9v.2m-.2 4.925c-.003.92.603 1.75 1.528 2.088M28.7 31.487l1.528 2.088M28.9 26.562h4.05V23.662H28.9l5.376 9.895-.195-.046c-.02.085-.036.18-.05.268l-.017.108a6.739 6.739 0 0 1-.018.099 4.075 4.075 0 0 0-.046.288v.001c-.009.082-.014.178-.018.261l-.007.12-.007.078M28.9 26.562v4.925c-.003.83.544 1.588 1.397 1.9l3.621 1.347m0 0 .195.072-3.885-1.231m3.69 1.159-.001.018c-.006.059-.012.124-.015.189l-3.674-1.366m5.06-2.366-.17-.104a3.051 3.051 0 0 1-.085.128l-.007.01c-.033.048-.07.103-.106.162v.001a4.728 4.728 0 0 0-.128.238c-.018.035-.035.07-.052.1l-.044.08c-.043.077-.093.167-.13.257h-.001c-.025.06-.048.12-.07.177l-.006.017-.06.152-.037.092a4.85 4.85 0 0 0-.101.26l.189.064 4.268-4.73a7.544 7.544 0 0 1-.11.05l-.103.044c-.093.04-.191.083-.274.124m-2.973 2.878a3.83 3.83 0 0 1 .354-.494c.027-.032.054-.065.08-.099l.046-.056c.063-.079.13-.164.2-.241.083-.093.162-.167.243-.243l.007-.007c.041-.039.085-.084.13-.13.046-.049.093-.098.14-.142.066-.062.13-.114.195-.166l.083-.068.117-.1c.058-.05.118-.102.18-.15.067-.054.135-.1.204-.145l.104-.07.086-.06c.074-.053.15-.106.227-.154.054-.034.112-.065.17-.096.059-.032.118-.064.175-.1.117-.07.211-.124.32-.178m-3.06 2.699c-.029.046-.06.09-.09.136-.036.052-.072.105-.107.163m.196-.3-.196.3m3.258-2.998-.089-.179m.089.18c.078-.039.169-.078.26-.118l.11-.048.119-.054c.073-.034.14-.065.217-.094l-.795.134m.089.18-.088-.18m-.747-7.159.1.173a44.255 44.255 0 0 1 4.14-2.104l3.405 3.151-16.46.054m8.815-1.274c-.159.092-.337.153-.523.178L28.7 22.446m8.815-1.274a44.447 44.447 0 0 1 4.28-2.167l-4.28 2.167ZM28.7 22.446h.2v.175l-.174.023-.026-.198Zm6.392 9.061c-.041.071-.08.147-.118.22a7 7 0 0 1-.057.11l-.052.095c-.041.074-.082.148-.116.226l-.074.19-.06.154.477-.995Zm8.152 8.305c-2.828.535-5.568-1.157-6.14-3.744l6.14 3.744Zm0 0c2.825-.535 4.621-3.078 4.052-5.66m-4.052 5.66 4.052-5.66m0 0c-.572-2.587-3.312-4.279-6.14-3.744m6.14 3.744-6.14-3.744m0 0c-2.43.46-4.156 2.434-4.156 4.703m4.156-4.703L37 35.111m0 0c0 .321.035.642.105.957L37 35.111Zm9.887-15.198H60.9v-4.6h-.564a45.56 45.56 0 0 0-15.508 2.693l2.059 1.907ZM64 34.91h21.203c.114-4.173 3.8-7.5 8.297-7.5 4.498 0 8.183 3.327 8.297 7.5h2.303V28.94c-.001-1.065-.618-2.057-1.631-2.594-4.376-2.313-9.328-3.531-14.369-3.533H64v12.1Zm0-14.998h17.957C76.403 17.205 70.273 15.656 64 15.376v4.537Z" fill="#fff" stroke="#fff" stroke-width=".4"/><defs><linearGradient id="a" x1="0" y1=".613" x2="80" y2="76.613" gradientUnits="userSpaceOnUse"><stop stop-color="#F09642" stop-opacity=".78"/><stop offset="1" stop-color="#F0D542" stop-opacity=".79"/></linearGradient></defs></svg>