<svg width="75" height="82" fill="none" xmlns="http://www.w3.org/2000/svg"><path d="M52.585 14.397c6.762 2.224 18.385 12.237 14.208 31.62-6.144 18.587-25.555 31.06-43.327 25.215-17.773-5.846-20.47-16.78-17.69-25.193 2.66-8.048 18.678-3.248 24.149-9.09 7.163-7.65 12.583-25.866 22.66-22.552Z" fill="url(#a)"/><g clip-path="url(#b)" fill="#fff" stroke="#fff" stroke-width=".4"><path d="M20.084 12.426c0 6.625 5.4 12.014 12.036 12.014 6.636 0 12.036-5.39 12.036-12.014S38.756.413 32.12.413c-6.637 0-12.036 5.389-12.036 12.013Zm21.52 0c0 5.22-4.254 9.466-9.484 9.466s-9.484-4.247-9.484-9.466c0-5.218 4.254-9.465 9.484-9.465s9.484 4.247 9.484 9.465ZM19.322 50.318l.001-.002a3.44 3.44 0 0 0 .854-3.416l1.032-.994a3.013 3.013 0 0 1 2.102-.847h14.304a9.844 9.844 0 0 0 6.918-2.817 436.904 436.904 0 0 0 1.026-1.219l.757-.905 7.966-9.504a4.496 4.496 0 0 0-.535-6.337 4.52 4.52 0 0 0-6.315.497l-6.193 6.352a4.525 4.525 0 0 0-3.354-1.502h-11.96a14.106 14.106 0 0 0-5.428-1.074c-5.197 0-9.757 2.376-12.24 6.846a3.418 3.418 0 0 0-2.913.97L.225 41.488a1.273 1.273 0 0 0-.002 1.797l12.082 12.15c.495.498 1.3.504 1.8.011l-.14-.143.14.143 5.217-5.13ZM52.33 28.973v.001l-9.644 11.507a7.3 7.3 0 0 1-5.07 2.03H23.311c-1.453 0-2.83.555-3.874 1.562l-.773.745-8.186-8.17c1.95-3.535 5.54-5.55 10.019-5.55 1.62 0 3.187.325 4.657.967.161.07.335.107.511.107h12.22c1.058 0 1.952.863 1.952 1.948a1.952 1.952 0 0 1-1.953 1.948h-8.779a1.275 1.275 0 1 0 0 2.547h8.78a4.505 4.505 0 0 0 4.476-4.986l4.413-4.527a11370.709 11370.709 0 0 1 2.313-2.373c.174-.18.245-.253.261-.272a1.962 1.962 0 0 1 2.753-.233 1.95 1.95 0 0 1 .228 2.75Zm-44.093 9.07v.001a.403.403 0 0 0 .035.02l.008.005c.011.009.035.029.1.09.124.118.374.367.924.917l.8.799c1.3 1.3 3.536 3.536 7.416 7.404.35.348.331.905.007 1.23L13.22 52.74 2.929 42.391l4.22-4.225a.875.875 0 0 1 1.087-.122Z"/><path d="M28.864 14.552a1.272 1.272 0 0 0-.155 1.795c.559.664 1.216 1.145 1.92 1.41v1.113c0 .704.573 1.274 1.277 1.274s1.276-.57 1.276-1.274v-1.12a3.427 3.427 0 0 0 2.152-3.175 3.428 3.428 0 0 0-3.428-3.422.876.876 0 0 1-.876-.874c0-.481.393-.874.876-.874.312 0 .667.16 1.025.505.506.49 1.314.476 1.804-.03a1.273 1.273 0 0 0-.03-1.8v-.001a4.417 4.417 0 0 0-1.523-.986v-1.11a1.275 1.275 0 0 0-2.552 0v1.12a3.426 3.426 0 0 0-2.152 3.176 3.429 3.429 0 0 0 3.428 3.422c.483 0 .876.392.876.874a.876.876 0 0 1-.876.873c-.377 0-.822-.24-1.244-.74a1.278 1.278 0 0 0-1.798-.156Z"/></g><defs><linearGradient id="a" x1="0" y1="63.514" x2="78.081" y2="16.087" gradientUnits="userSpaceOnUse"><stop stop-color="#F09642" stop-opacity=".78"/><stop offset="1" stop-color="#F0D542" stop-opacity=".79"/></linearGradient><clipPath id="b"><path fill="#fff" transform="translate(0 .613)" d="M0 0h55v55H0z"/></clipPath></defs></svg>