<svg width="83" height="89" fill="none" xmlns="http://www.w3.org/2000/svg"><path d="M65.24 71.623c10.334-2.2 7.599-28.118 2.26-38.01-9.714-18-30.198-27.074-51.841-15.746-7.43 3.888-13.05 13.148-8.305 22.157 4.54 8.618 23.609 8.737 31.384 14.082 10.18 7 10.575 20.905 26.502 17.517Z" fill="url(#a)"/><path d="m55.365 48.84-1.34 1.34 2.199 7.381c.117.393.01.819-.281 1.109l-1.951 1.95v.001c-.48.48-1.29.417-1.69-.13L41.845 46.208a1.117 1.117 0 1 1 1.802-1.32l9.686 13.233.56-.56-7-23.5a347.561 347.561 0 0 1-6.69 6.121l1.418 1.938-.271.199.271-.199a1.123 1.123 0 0 1-.13 1.468 1.124 1.124 0 0 1-1.672-.149l-1.293-1.766a721.36 721.36 0 0 1-12.738 10.99l2.074 5.394 27.502-9.217Zm0 0a2.756 2.756 0 0 0 0-3.892 2.738 2.738 0 0 0-1.946-.806c-.392 0-.773.082-1.121.238m3.067 4.46-3.068-4.46m0 0-.13-.437 1.463-1.463a2.754 2.754 0 0 0 0-3.892 2.753 2.753 0 0 0-3.206-.498l-1.716-5.76c.708-.683 1.388-1.349 2.031-1.992 2-2 3.637-4.127 4.603-5.997.817-1.582 1.075-2.834.995-3.823-.08-.996-.5-1.695-.972-2.168-.473-.472-1.171-.892-2.168-.972-.989-.079-2.24.178-3.823.996-1.87.966-3.996 2.603-5.996 4.602m8.92 21.404L15.045 17.773l.248.247-.248-.247c.29-.29.715-.398 1.108-.281l7.382 2.198 1.34-1.34a2.754 2.754 0 0 1 3.891 0c.52.52.806 1.212.806 1.946 0 .393-.082.773-.237 1.122l.437.13 1.463-1.463a2.755 2.755 0 0 1 3.892 0 2.754 2.754 0 0 1 .498 3.207l5.76 1.715a158.9 158.9 0 0 1 1.992-2.03m0 0 .248.247-.248-.248Zm-30.283-3.253c-.48.48-.417 1.29.13 1.69l.206-.282-.206.282 18.817 13.774a721.39 721.39 0 0 0-10.99 12.739l-5.394-2.075a1.117 1.117 0 0 0-1.19.253l-2.313 2.312a1.117 1.117 0 0 0 0 1.58L23.719 61.56a1.124 1.124 0 0 0 1.58 0l2.312-2.312c.312-.312.411-.779.252-1.19L13.095 19.723Zm0 0 .247.247-.247-.247Zm19.72 1.94a.527.527 0 0 1 .734 0 .52.52 0 0 1 0 .734l-.212.212-1.13-.337.608-.609Zm-6.36-1.734a.52.52 0 0 1 .734.733l-.09.09-1.13-.338.486-.485Zm18.502 4.625c1.83-1.83 3.817-3.357 5.442-4.197.613-.317 1.308-.607 1.94-.717.64-.111 1.132-.027 1.447.289.316.315.4.807.289 1.447-.11.632-.4 1.326-.718 1.94-.839 1.625-2.366 3.61-4.197 5.441-9.077 9.078-25.446 22.758-29.206 25.88l-.875-.876c3.12-3.76 16.8-20.129 25.878-29.207Zm6.36 15.612h.001a.52.52 0 0 1 .734 0 .527.527 0 0 1 0 .734l-.61.609-.337-1.131.213-.212ZM16.156 19.822l23.5 7a349.15 349.15 0 0 0-6.122 6.69l-17.938-13.13.56-.56Zm-1.632 29.385 1.01-1.01 3.998 1.537a698.791 698.791 0 0 0-2.038 2.442l-2.97-2.97Zm9.458 4.977 1.538 3.998-1.01 1.01-2.97-2.97a677.86 677.86 0 0 0 2.442-2.038Zm29.071-7.657a.52.52 0 0 1 .734.734l-.486.486-.337-1.13.09-.09Z" fill="#fff" stroke="#fff" stroke-width=".7"/><defs><linearGradient id="a" x1="0" y1="26.063" x2="92.564" y2="57.292" gradientUnits="userSpaceOnUse"><stop stop-color="#F09642" stop-opacity=".78"/><stop offset="1" stop-color="#F0D542" stop-opacity=".79"/></linearGradient></defs></svg>