<svg width="76" height="67" fill="none" xmlns="http://www.w3.org/2000/svg"><path d="M63.217 43.17c.01 7.127-5.856 21.323-25.595 23.443-19.6 0-37.559-14.533-37.586-33.266C.009 14.614 9.555 8.614 18.427 8.613c8.488 0 8.958 16.736 16.23 20.101 9.523 4.406 28.545 3.835 28.56 14.457Z" fill="url(#a)"/><mask id="b" maskUnits="userSpaceOnUse" x="28.5" y="1.613" width="43" height="54" fill="#000"><path fill="#fff" d="M28.5 1.613h43v54h-43z"/><path d="M50 2.613c-11.304 0-20.5 9.197-20.5 20.5 0 7.045 3.572 13.27 9 16.962v13.038a1.5 1.5 0 0 0 2.115 1.368L50 50.258l9.385 4.223a1.499 1.499 0 0 0 2.115-1.368V40.075c5.428-3.691 9-9.917 9-16.962 0-11.303-9.196-20.5-20.5-20.5Zm8.5 48.18-7.885-3.547a1.5 1.5 0 0 0-1.23 0L41.5 50.792v-9.022c.754.344 1.528.64 2.316.888l.134.043a19.074 19.074 0 0 0 .773.221 21.193 21.193 0 0 0 .996.24l.367.074.15.029c.129.024.26.046.39.068l.134.022c.135.022.27.042.406.06l.126.018c.138.018.276.035.414.05l.123.014c.138.015.276.028.415.04l.126.01c.137.011.274.02.411.028l.133.008c.139.008.278.013.417.017l.126.005a20.846 20.846 0 0 0 1.086 0l.126-.005c.14-.004.279-.01.418-.017l.132-.008c.137-.008.274-.017.411-.028l.126-.01c.139-.012.277-.025.415-.04l.123-.014a21.6 21.6 0 0 0 .414-.05l.126-.017.406-.06.134-.023c.131-.022.261-.044.391-.069l.15-.028a21.207 21.207 0 0 0 1.362-.314l.246-.066a19.232 19.232 0 0 0 .527-.155l.134-.043c.789-.249 1.562-.544 2.316-.888v9.023Zm-2.79-11.137-.179.06a16.931 16.931 0 0 1-.596.188l-.229.066c-.142.04-.285.077-.428.113l-.16.04c-.14.034-.282.066-.423.096l-.106.024c-.182.038-.365.073-.549.105l-.056.01a17.312 17.312 0 0 1-1.143.159l-.02.002c-.186.02-.373.035-.56.049l-.123.007c-.146.01-.292.017-.438.023l-.149.006a17.155 17.155 0 0 1-1.103 0l-.148-.006a17.226 17.226 0 0 1-.438-.023l-.122-.008c-.188-.013-.375-.029-.561-.048l-.02-.003a17.527 17.527 0 0 1-1.143-.158l-.056-.01a17.452 17.452 0 0 1-.549-.106l-.106-.023c-.141-.03-.282-.063-.423-.096l-.16-.04a17.086 17.086 0 0 1-1.253-.366l-.18-.062C37.435 37.283 32.5 30.764 32.5 23.113c0-9.65 7.85-17.5 17.5-17.5s17.5 7.85 17.5 17.5c0 7.65-4.935 14.17-11.79 16.543Z"/></mask><path d="M50 2.613c-11.304 0-20.5 9.197-20.5 20.5 0 7.045 3.572 13.27 9 16.962v13.038a1.5 1.5 0 0 0 2.115 1.368L50 50.258l9.385 4.223a1.499 1.499 0 0 0 2.115-1.368V40.075c5.428-3.691 9-9.917 9-16.962 0-11.303-9.196-20.5-20.5-20.5Zm8.5 48.18-7.885-3.547a1.5 1.5 0 0 0-1.23 0L41.5 50.792v-9.022c.754.344 1.528.64 2.316.888l.134.043a19.074 19.074 0 0 0 .773.221 21.193 21.193 0 0 0 .996.24l.367.074.15.029c.129.024.26.046.39.068l.134.022c.135.022.27.042.406.06l.126.018c.138.018.276.035.414.05l.123.014c.138.015.276.028.415.04l.126.01c.137.011.274.02.411.028l.133.008c.139.008.278.013.417.017l.126.005a20.846 20.846 0 0 0 1.086 0l.126-.005c.14-.004.279-.01.418-.017l.132-.008c.137-.008.274-.017.411-.028l.126-.01c.139-.012.277-.025.415-.04l.123-.014a21.6 21.6 0 0 0 .414-.05l.126-.017.406-.06.134-.023c.131-.022.261-.044.391-.069l.15-.028a21.207 21.207 0 0 0 1.362-.314l.246-.066a19.232 19.232 0 0 0 .527-.155l.134-.043c.789-.249 1.562-.544 2.316-.888v9.023Zm-2.79-11.137-.179.06a16.931 16.931 0 0 1-.596.188l-.229.066c-.142.04-.285.077-.428.113l-.16.04c-.14.034-.282.066-.423.096l-.106.024c-.182.038-.365.073-.549.105l-.056.01a17.312 17.312 0 0 1-1.143.159l-.02.002c-.186.02-.373.035-.56.049l-.123.007c-.146.01-.292.017-.438.023l-.149.006a17.155 17.155 0 0 1-1.103 0l-.148-.006a17.226 17.226 0 0 1-.438-.023l-.122-.008c-.188-.013-.375-.029-.561-.048l-.02-.003a17.527 17.527 0 0 1-1.143-.158l-.056-.01a17.452 17.452 0 0 1-.549-.106l-.106-.023c-.141-.03-.282-.063-.423-.096l-.16-.04a17.086 17.086 0 0 1-1.253-.366l-.18-.062C37.435 37.283 32.5 30.764 32.5 23.113c0-9.65 7.85-17.5 17.5-17.5s17.5 7.85 17.5 17.5c0 7.65-4.935 14.17-11.79 16.543Z" fill="#fff"/><path d="M50 2.613c-11.304 0-20.5 9.197-20.5 20.5 0 7.045 3.572 13.27 9 16.962v13.038a1.5 1.5 0 0 0 2.115 1.368L50 50.258l9.385 4.223a1.499 1.499 0 0 0 2.115-1.368V40.075c5.428-3.691 9-9.917 9-16.962 0-11.303-9.196-20.5-20.5-20.5Zm8.5 48.18-7.885-3.547a1.5 1.5 0 0 0-1.23 0L41.5 50.792v-9.022c.754.344 1.528.64 2.316.888l.134.043a19.074 19.074 0 0 0 .773.221 21.193 21.193 0 0 0 .996.24l.367.074.15.029c.129.024.26.046.39.068l.134.022c.135.022.27.042.406.06l.126.018c.138.018.276.035.414.05l.123.014c.138.015.276.028.415.04l.126.01c.137.011.274.02.411.028l.133.008c.139.008.278.013.417.017l.126.005a20.846 20.846 0 0 0 1.086 0l.126-.005c.14-.004.279-.01.418-.017l.132-.008c.137-.008.274-.017.411-.028l.126-.01c.139-.012.277-.025.415-.04l.123-.014a21.6 21.6 0 0 0 .414-.05l.126-.017.406-.06.134-.023c.131-.022.261-.044.391-.069l.15-.028a21.207 21.207 0 0 0 1.362-.314l.246-.066a19.232 19.232 0 0 0 .527-.155l.134-.043c.789-.249 1.562-.544 2.316-.888v9.023Zm-2.79-11.137-.179.06a16.931 16.931 0 0 1-.596.188l-.229.066c-.142.04-.285.077-.428.113l-.16.04c-.14.034-.282.066-.423.096l-.106.024c-.182.038-.365.073-.549.105l-.056.01a17.312 17.312 0 0 1-1.143.159l-.02.002c-.186.02-.373.035-.56.049l-.123.007c-.146.01-.292.017-.438.023l-.149.006a17.155 17.155 0 0 1-1.103 0l-.148-.006a17.226 17.226 0 0 1-.438-.023l-.122-.008c-.188-.013-.375-.029-.561-.048l-.02-.003a17.527 17.527 0 0 1-1.143-.158l-.056-.01a17.452 17.452 0 0 1-.549-.106l-.106-.023c-.141-.03-.282-.063-.423-.096l-.16-.04a17.086 17.086 0 0 1-1.253-.366l-.18-.062C37.435 37.283 32.5 30.764 32.5 23.113c0-9.65 7.85-17.5 17.5-17.5s17.5 7.85 17.5 17.5c0 7.65-4.935 14.17-11.79 16.543Z" stroke="#fff" stroke-width=".8" mask="url(#b)"/><path d="M51.444 10.213a1.7 1.7 0 0 0-2.884 0l-3.121 4.997-5.888.204a1.7 1.7 0 0 0-1.442 2.498l2.767 5.201-2.767 5.202a1.7 1.7 0 0 0 1.442 2.497l5.888.204 3.12 4.998.17-.106-.17.106a1.7 1.7 0 0 0 2.885 0l3.12-4.998 5.889-.204a1.7 1.7 0 0 0 1.442-2.497l-2.768-5.202 2.768-5.201a1.7 1.7 0 0 0-1.442-2.498l-5.889-.204-3.12-4.997ZM46.46 27.65l-4.072-.142 1.913-3.596a1.7 1.7 0 0 0 0-1.597l-1.913-3.597 4.072-.141a1.7 1.7 0 0 0 1.383-.799l2.158-3.455 2.158 3.455c.3.48.818.78 1.383.799l4.071.141-1.913 3.597a1.7 1.7 0 0 0 0 1.597l1.913 3.597-4.071.14a1.7 1.7 0 0 0-1.383.799l-2.158 3.456-2.158-3.456a1.7 1.7 0 0 0-1.383-.798Z" fill="#fff" stroke="#fff" stroke-width=".4"/><defs><linearGradient id="a" x1="0" y1="8.613" x2="69.622" y2="67.939" gradientUnits="userSpaceOnUse"><stop stop-color="#F09642" stop-opacity=".78"/><stop offset="1" stop-color="#F0D542" stop-opacity=".79"/></linearGradient></defs></svg>