<svg width="80" height="64" fill="none" xmlns="http://www.w3.org/2000/svg"><path d="M77.556 27.458C80.35 18.146 64.5 7.388 44.993 8.92 26.878 10.344.48 25.1 1.203 47.21c.25 7.59 6.62 15.78 17.71 15.389 10.608-.376 19.856-15.941 28.81-20.234 11.724-5.622 25.524-.554 29.833-14.907Z" fill="url(#a)"/><g clip-path="url(#b)" fill="#fff" stroke="#fff" stroke-width=".4"><path d="M44.787 45.719a1.518 1.518 0 0 0 3.036 0c0-9.982-8.12-18.103-18.102-18.103-9.983 0-18.104 8.121-18.104 18.103a1.518 1.518 0 1 0 3.036 0c0-8.307 6.76-15.067 15.068-15.067 8.307 0 15.066 6.76 15.066 15.067Z"/><path d="M19.135 19.575c0 5.837 4.749 10.585 10.586 10.585 5.837 0 10.585-4.748 10.585-10.585 0-5.836-4.748-10.584-10.585-10.584-5.837 0-10.586 4.748-10.586 10.584Zm3.037 0c0-4.161 3.386-7.548 7.549-7.548 4.162 0 7.548 3.387 7.548 7.548 0 4.163-3.386 7.549-7.548 7.549-4.163 0-7.55-3.386-7.55-7.549ZM22.715 29.012c-2.501-1.447-5.11-2.183-7.753-2.183C6.322 26.829-.2 33.322-.2 41.928c0 .838.68 1.518 1.518 1.518h10.146a1.519 1.519 0 0 0 0-3.037h-8.54c.703-6.108 5.639-10.544 12.038-10.544 2.096 0 4.192.594 6.233 1.776a1.52 1.52 0 0 0 1.52-2.63Z"/><path d="M21.395 14.267a8.955 8.955 0 0 0-6.372-2.64c-4.97 0-9.01 4.042-9.01 9.01 0 4.97 4.04 9.012 9.01 9.012a9.022 9.022 0 0 0 7.409-3.882 1.517 1.517 0 1 0-2.495-1.73 5.983 5.983 0 0 1-4.914 2.576 5.982 5.982 0 0 1-5.974-5.975 5.981 5.981 0 0 1 5.974-5.974c1.597 0 3.095.621 4.225 1.75a1.518 1.518 0 1 0 2.147-2.148ZM39.854 28.553c.033.748.61 1.36 1.353 1.44 5.726.619 10.156 4.98 10.859 10.416h-5.449a1.519 1.519 0 0 0 0 3.037h7.065c.838 0 1.518-.68 1.518-1.519 0-6.218-3.85-11.614-9.446-13.891a8.8 8.8 0 0 0 3.184-6.811c0-4.936-4.431-9.25-9.48-9.25a1.518 1.518 0 1 0 0 3.037c3.373 0 6.444 2.973 6.444 6.213 0 2.821-1.982 5.195-4.833 5.77-.734.148-1.25.81-1.215 1.558Zm0 0 .2-.01-.2.01ZM52.29 40.609a13.161 13.161 0 0 0-.023-.2l.023.2Z"/></g><defs><linearGradient id="a" x1="1.728" y1="63.207" x2="62.663" y2="-11.8" gradientUnits="userSpaceOnUse"><stop stop-color="#F09642" stop-opacity=".78"/><stop offset="1" stop-color="#F0D542" stop-opacity=".79"/></linearGradient><clipPath id="b"><path fill="#fff" transform="translate(0 .613)" d="M0 0h55v55H0z"/></clipPath></defs></svg>