<svg width="52" height="52" fill="none" xmlns="http://www.w3.org/2000/svg"><path d="M46.943 0H5.057C2.269 0 0 2.6 0 5.795v40.41C0 49.4 2.269 52 5.057 52h41.886C49.73 52 52 49.4 52 46.205V5.795C52 2.6 49.731 0 46.943 0ZM5.057 3.493h41.886c1.108 0 2.01 1.033 2.01 2.302v7.977H3.047V5.795c0-1.27.901-2.302 2.01-2.302Zm41.886 45.014H5.057c-1.108 0-2.01-1.033-2.01-2.302v-28.94h45.905v28.94c0 1.27-.901 2.302-2.01 2.302Z" fill="url(#a)"/><path d="M7.652 10.494c.847 0 1.534-.787 1.534-1.758 0-.97-.687-1.757-1.534-1.757-.848 0-1.534.787-1.534 1.757 0 .971.686 1.758 1.534 1.758Z" fill="url(#b)"/><path d="M13.887 10.494c.847 0 1.534-.787 1.534-1.758 0-.97-.687-1.757-1.534-1.757s-1.534.787-1.534 1.757c0 .971.687 1.758 1.534 1.758Z" fill="url(#c)"/><path d="M20.411 10.494c.847 0 1.534-.787 1.534-1.758 0-.97-.687-1.757-1.534-1.757s-1.534.787-1.534 1.757c0 .971.687 1.758 1.534 1.758Z" fill="url(#d)"/><path d="M16.71 27.953c-.795-.313-1.663.172-1.936 1.084l-.63 2.102-.721-2.158c-.346-1.257-2.275-1.712-2.865.056l-.63 2.102-.721-2.158c-.301-.901-1.182-1.352-1.968-1.007-.786.345-1.18 1.354-.879 2.255l2.221 6.65c.226.677.793 1.123 1.423 1.123h.027c.64-.013 1.206-.484 1.414-1.179l.631-2.102.72 2.159c.227.676.793 1.122 1.424 1.122h.026c.641-.013 1.207-.484 1.415-1.179l1.995-6.65c.274-.912-.15-1.906-.945-2.22Z" fill="url(#e)"/><path d="M30.712 27.953c-.796-.313-1.663.172-1.936 1.084l-.63 2.102-.722-2.158c-.346-1.258-2.275-1.71-2.864.056l-.63 2.102-.722-2.158c-.3-.901-1.181-1.352-1.968-1.007-.786.345-1.179 1.354-.878 2.255l2.22 6.65c.227.677.793 1.123 1.424 1.123h.026c.641-.013 1.207-.484 1.415-1.179l.63-2.102.721 2.159c.227.676.793 1.122 1.424 1.122h.026c.641-.013 1.207-.484 1.415-1.179l1.995-6.65c.274-.912-.15-1.906-.946-2.22Z" fill="url(#f)"/><path d="M44.71 27.953c-.795-.313-1.662.172-1.936 1.084l-.63 2.102-.721-2.158c-.346-1.255-2.27-1.715-2.865.056l-.63 2.102-.721-2.158c-.3-.901-1.182-1.352-1.968-1.007-.786.345-1.18 1.354-.879 2.255l2.221 6.65c.226.677.793 1.123 1.423 1.123h.027c.64-.013 1.206-.484 1.415-1.179l.63-2.102.721 2.159c.226.676.793 1.122 1.423 1.122h.027c.64-.013 1.206-.484 1.415-1.179l1.994-6.65c.274-.912-.15-1.906-.945-2.22Z" fill="url(#g)"/><defs><linearGradient id="a" x1="-6.5" y1="-8.138" x2="63.185" y2="72.294" gradientUnits="userSpaceOnUse"><stop stop-color="#1C2D5A"/><stop offset="1" stop-color="#4FC3DD" stop-opacity=".96"/></linearGradient><linearGradient id="b" x1="5.734" y1="6.428" x2="10.494" y2="11.223" gradientUnits="userSpaceOnUse"><stop stop-color="#1C2D5A"/><stop offset="1" stop-color="#4FC3DD" stop-opacity=".96"/></linearGradient><linearGradient id="c" x1="11.969" y1="6.428" x2="16.729" y2="11.223" gradientUnits="userSpaceOnUse"><stop stop-color="#1C2D5A"/><stop offset="1" stop-color="#4FC3DD" stop-opacity=".96"/></linearGradient><linearGradient id="d" x1="18.494" y1="6.428" x2="23.253" y2="11.223" gradientUnits="userSpaceOnUse"><stop stop-color="#1C2D5A"/><stop offset="1" stop-color="#4FC3DD" stop-opacity=".96"/></linearGradient><linearGradient id="e" x1="4.824" y1="26.27" x2="18.082" y2="43.589" gradientUnits="userSpaceOnUse"><stop stop-color="#1C2D5A"/><stop offset="1" stop-color="#4FC3DD" stop-opacity=".96"/></linearGradient><linearGradient id="f" x1="18.826" y1="26.27" x2="32.084" y2="43.589" gradientUnits="userSpaceOnUse"><stop stop-color="#1C2D5A"/><stop offset="1" stop-color="#4FC3DD" stop-opacity=".96"/></linearGradient><linearGradient id="g" x1="32.824" y1="26.27" x2="46.082" y2="43.589" gradientUnits="userSpaceOnUse"><stop stop-color="#1C2D5A"/><stop offset="1" stop-color="#4FC3DD" stop-opacity=".96"/></linearGradient></defs></svg>