<svg width="48" height="52" fill="none" xmlns="http://www.w3.org/2000/svg"><path d="M38.063 20.482c2.81-2.105 4.617-5.357 4.617-8.999C42.68 5.151 37.223 0 30.515 0c-6.707 0-12.164 5.151-12.164 11.483 0 .415.024.825.07 1.229a10.103 10.103 0 0 0-4.654-1.124c-5.355 0-9.711 4.113-9.711 9.169 0 2.635 1.186 5.013 3.078 6.688C2.938 29.19 0 33.167 0 37.782v10.662C0 50.404 1.683 52 3.751 52h39.902C46.05 52 48 50.151 48 47.879V33.894c0-6.164-4.148-11.426-9.937-13.412ZM30.515 3.485c4.68 0 8.488 3.588 8.488 7.998s-3.807 7.998-8.488 7.998c-4.68 0-8.488-3.588-8.488-7.998s3.808-7.998 8.488-7.998ZM13.767 15.073c3.327 0 6.035 2.55 6.035 5.684 0 .454-.058.905-.17 1.342a14.76 14.76 0 0 0-4.24 4.133 6.39 6.39 0 0 1-1.625.208c-3.327 0-6.034-2.55-6.034-5.683 0-3.134 2.707-5.684 6.034-5.684ZM3.677 48.444V37.782c0-4.3 3.69-7.799 8.226-7.799h1.703a13.528 13.528 0 0 0-.575 3.911V47.88c0 .216.018.428.052.636H3.75c-.037 0-.074-.036-.074-.07Zm40.646-.565c0 .345-.307.636-.67.636H17.378c-.363 0-.67-.291-.67-.636V33.894c0-5.94 5.097-10.772 11.363-10.772h4.889c6.266 0 11.363 4.832 11.363 10.772V47.88Z" fill="url(#a)"/><defs><linearGradient id="a" x1="-6" y1="-8.138" x2="64.262" y2="66.722" gradientUnits="userSpaceOnUse"><stop stop-color="#1C2D5A"/><stop offset="1" stop-color="#4FC3DD" stop-opacity=".96"/></linearGradient></defs></svg>