<svg width="52" height="52" fill="none" xmlns="http://www.w3.org/2000/svg"><g clip-path="url(#a)"><path d="M13.81 35.287a1.35 1.35 0 0 0-.927-.337H8.358v-2.11h3.89c.37 0 .71-.137.96-.386a1.273 1.273 0 0 0-.033-1.833 1.349 1.349 0 0 0-.927-.34H8.33l-.053-1.765h4.433c.363 0 .698-.137.947-.385.24-.239.373-.56.373-.894 0-.345-.131-.668-.406-.94a1.335 1.335 0 0 0-.914-.34H7.886c-.67 0-1.237.246-1.643.713-.343.399-.523.912-.523 1.48v7.178c0 .563.175 1.057.525 1.47.28.322.792.708 1.64.708h4.998c.485 0 .795-.213.95-.373.248-.239.383-.561.383-.907s-.132-.668-.407-.94Z" fill="url(#b)"/><path d="M24.488 32.928a1.31 1.31 0 0 0-.849-.59 1.44 1.44 0 0 0-.306-.033l-.45.054-.211.12c-.34.196-.569.525-.634.901-.15.685-.404 1.158-.767 1.432-.323.24-.775.363-1.346.363-.762 0-1.318-.238-1.754-.752-.506-.594-.762-1.498-.762-2.689 0-1.16.259-2.059.76-2.66.456-.53 1.015-.78 1.756-.78.581 0 1.033.12 1.381.364.358.251.582.631.683 1.145.091.518.374.8.566.926.216.153.467.234.726.234l.292-.033c.33-.073.62-.264.823-.554a1.41 1.41 0 0 0 .216-1.018c-.196-1.046-.663-1.902-1.402-2.549-.835-.713-1.942-1.074-3.285-1.074-1.539 0-2.8.577-3.748 1.71-.934 1.097-1.406 2.541-1.406 4.29 0 1.788.475 3.242 1.404 4.315.944 1.12 2.206 1.685 3.75 1.685 1.348 0 2.458-.39 3.296-1.16.7-.635 1.183-1.496 1.44-2.565.113-.51-.039-.881-.173-1.082Z" fill="url(#c)"/><path d="M35.134 27.647c-.975-1.272-2.346-1.915-4.082-1.915-1.748.001-3.127.647-4.103 1.926-.803 1.082-1.21 2.453-1.21 4.075 0 1.622.407 2.99 1.214 4.065.97 1.284 2.349 1.934 4.099 1.934 1.736 0 3.11-.65 4.08-1.93.827-1.076 1.244-2.445 1.244-4.07 0-1.622-.416-2.996-1.242-4.085Zm-2.068 6.605c-.462.637-1.104.934-2.014.934-.916 0-1.556-.297-2.01-.93-.44-.614-.663-1.461-.663-2.523 0-1.069.223-1.917.665-2.526.452-.632 1.092-.93 2.008-.93.91 0 1.55.298 2.014.938.446.611.672 1.46.672 2.518 0 1.051-.229 1.902-.672 2.519Z" fill="url(#d)"/><path d="M50.851.852a1.31 1.31 0 0 0-1-.833L49.634 0c-.384 0-.744.164-.991.451-.842.983-3.171 1.394-5.431 1.793-3.19.564-7.172 1.318-9.543 4.085-1.27-2.833-3.913-5.125-6.238-6.208a1.302 1.302 0 0 0-1.29.108 1.31 1.31 0 0 0-.555 1.17c.063.813-1.001 2.118-2.03 3.38-1.277 1.565-2.804 3.476-3.178 5.641-11.29.23-20.375 9.435-20.375 20.78C.002 42.687 9.314 52 20.802 52c11.487 0 20.8-9.312 20.8-20.8 0-3.94-1.117-7.611-3.02-10.752.863.224 1.774.35 2.729.35 3.65 0 6.456-1.36 8.338-4.05C52.998 11.97 52.164 4.462 50.851.852ZM25.57 6.422c.86-1.054 1.694-2.073 2.18-3.128 1.883 1.292 3.634 3.34 4.017 5.507.25 1.421-.142 2.787-1.109 4.082-.58-.313-1.176-.6-1.787-.858.223-1.087.366-2.298.192-3.764a1.299 1.299 0 1 0-2.581.306c.115.974.042 1.82-.097 2.615a20.651 20.651 0 0 0-3.35-.657c.309-1.238 1.252-2.528 2.535-4.102ZM39.001 31.2c0 10.035-8.164 18.2-18.2 18.2-10.034 0-18.2-8.165-18.2-18.2S10.768 13 20.802 13c10.036 0 18.2 8.165 18.2 18.2Zm8.52-15.942c-1.366 1.95-3.455 2.94-6.21 2.94-1.963 0-3.703-.598-4.99-1.703a12.939 12.939 0 0 1 3.329-1.803l.273-.106c2.24-.782 4.335-.762 4.5-.724l.278.03c.612 0 1.134-.415 1.27-1.015a1.305 1.305 0 0 0-.65-1.427 12.38 12.38 0 0 0 2.88-3.823 1.295 1.295 0 0 0-.607-1.735c-.62-.294-1.434-.015-1.735.605-1.035 2.145-2.765 3.788-5.26 4.989a5.302 5.302 0 0 0-.506-3.14c-.31-.626-1.136-.882-1.74-.585a1.292 1.292 0 0 0-.655.751c-.112.333-.085.686.07.994.782 1.566-.205 2.996-.588 3.46-.855.427-1.66.924-2.406 1.486a5.868 5.868 0 0 1-.49-3.128c.55-4.957 4.837-5.713 9.379-6.516 1.94-.343 3.79-.668 5.238-1.381.874 3.726.803 8.713-1.38 11.831Z" fill="url(#e)"/></g><defs><linearGradient id="b" x1="4.658" y1="24.15" x2="20.087" y2="37.251" gradientUnits="userSpaceOnUse"><stop stop-color="#1C2D5A"/><stop offset="1" stop-color="#4FC3DD" stop-opacity=".96"/></linearGradient><linearGradient id="c" x1="13.53" y1="23.857" x2="29.759" y2="39.358" gradientUnits="userSpaceOnUse"><stop stop-color="#1C2D5A"/><stop offset="1" stop-color="#4FC3DD" stop-opacity=".96"/></linearGradient><linearGradient id="d" x1="24.41" y1="23.855" x2="40.652" y2="40.472" gradientUnits="userSpaceOnUse"><stop stop-color="#1C2D5A"/><stop offset="1" stop-color="#4FC3DD" stop-opacity=".96"/></linearGradient><linearGradient id="e" x1="-6.498" y1="-8.138" x2="63.187" y2="72.293" gradientUnits="userSpaceOnUse"><stop stop-color="#1C2D5A"/><stop offset="1" stop-color="#4FC3DD" stop-opacity=".96"/></linearGradient><clipPath id="a"><path fill="#fff" d="M0 0h52v52H0z"/></clipPath></defs></svg>