<svg width="52" height="52" fill="none" xmlns="http://www.w3.org/2000/svg"><g clip-path="url(#a)"><path d="M51.72 21.556 42.59 8.562a1.53 1.53 0 0 0-2.503 0l-3.475 4.945a20.401 20.401 0 0 0-16.173-7.945C9.168 5.562 0 14.73 0 26s9.169 20.438 20.438 20.438a20.39 20.39 0 0 0 13.954-5.504l-.095 1.53a1.53 1.53 0 0 0 1.527 1.624H46.85a1.53 1.53 0 0 0 1.526-1.624l-1.142-18.5h3.234c1.238 0 1.962-1.397 1.251-2.408ZM20.438 43.38c-9.583 0-17.38-7.796-17.38-17.38 0-9.582 7.797-17.379 17.38-17.379 5.787 0 11.068 2.796 14.317 7.527l-3.8 5.41c-.712 1.012.015 2.408 1.25 2.408h3.235l-.74 11.964a17.348 17.348 0 0 1-14.262 7.45Zm25.17-22.473a1.53 1.53 0 0 0-1.526 1.624l1.142 18.5H37.45l1.143-18.5a1.53 1.53 0 0 0-1.526-1.624H35.15l6.188-8.805 6.187 8.805h-1.917Z" fill="url(#b)"/><path d="M22.367 24.47h-3.86a1.937 1.937 0 1 1 0-3.875h3.723c.91.009 1.79.506 2.295 1.296l.02.03a1.53 1.53 0 1 0 2.579-1.643l-.021-.033c-1.067-1.667-2.806-2.709-5.137-2.709v-1.834a1.53 1.53 0 0 0-3.059 0v1.834c-1.461 0-2.727.265-3.92 1.45a4.962 4.962 0 0 0-1.477 3.547 5.002 5.002 0 0 0 4.996 4.996h3.86a1.94 1.94 0 0 1 1.939 1.938c0 1.03-.817 1.938-1.964 1.938h-4.035c-.795-.008-1.557-.38-2.092-1.022a1.53 1.53 0 1 0-2.35 1.958c1.431 1.718 3.097 2.122 5.043 2.122v1.834a1.53 1.53 0 1 0 3.059 0v-1.834c3.562 0 5.397-2.51 5.397-4.996a5.002 5.002 0 0 0-4.996-4.996Z" fill="url(#c)"/></g><defs><linearGradient id="b" x1="-6.5" y1="-.836" x2="44.997" y2="74.778" gradientUnits="userSpaceOnUse"><stop stop-color="#1C2D5A"/><stop offset="1" stop-color="#4FC3DD" stop-opacity=".96"/></linearGradient><linearGradient id="c" x1="11.778" y1="10.471" x2="41.496" y2="30.561" gradientUnits="userSpaceOnUse"><stop stop-color="#1C2D5A"/><stop offset="1" stop-color="#4FC3DD" stop-opacity=".96"/></linearGradient><clipPath id="a"><path fill="#fff" d="M0 0h52v52H0z"/></clipPath></defs></svg>