<svg width="52" height="52" fill="none" xmlns="http://www.w3.org/2000/svg"><g clip-path="url(#a)"><path d="M41.058 35.442c-1.02-2.354-4.671-5.622-8.198-8.779-1.968-1.76-3.827-3.423-5.012-4.734a1.01 1.01 0 0 0-1.133-.28c-.73.292-1.18.517-1.536.692-.542.269-.724.36-1.454.441a1.071 1.071 0 0 0-.793.525c-1.532 2.534-3.118 2.318-4.177 1.925-.338-.124-.399-.285-.431-.438-.228-1.053.914-3.503 2.394-5.14 3.52-3.898 5.336-4.873 9.171-2.977 4.35 2.152 8.71 3.838 8.753 3.855.57.218 1.183-.113 1.38-.739.196-.626-.101-1.309-.667-1.527-.043-.017-4.316-1.668-8.58-3.78-4.968-2.457-7.694-.84-11.587 3.47-1.482 1.64-3.495 4.958-2.975 7.391.223 1.036.882 1.803 1.861 2.16 2.455.897 4.695.038 6.364-2.411.689-.118 1.064-.29 1.627-.57.203-.102.442-.219.758-.36 1.24 1.287 2.912 2.785 4.674 4.36 3.185 2.85 6.797 6.082 7.61 7.951.4.923-.031 1.525-.324 1.8-.429.408-1.016.538-1.334.29a.998.998 0 0 0-1.17-.042c-.364.24-.568.692-.523 1.157.074.763-.556 1.199-.83 1.35-.693.388-1.416.321-1.687.043a1.016 1.016 0 0 0-1.125-.244c-.385.16-.654.553-.693 1.009-.065.786-.592 1.541-1.279 1.836-.331.139-.812.223-1.243-.213a1.022 1.022 0 0 0-.99-.279c-.353.096-.637.38-.76.756-.042.12-.135.407-1.15.407-.72 0-2.018-.54-2.653-1.004-.76-.554-5.53-4.49-9.648-8.306-.579-.54-1.58-1.695-2.464-2.716-.784-.907-1.501-1.729-1.87-2.074-.461-.431-1.144-.367-1.527.142-.386.505-.33 1.263.128 1.69.335.314.985 1.073 1.703 1.9.966 1.117 1.965 2.273 2.636 2.896 4.035 3.737 8.884 7.772 9.85 8.474.797.58 2.516 1.395 3.846 1.395 1.068 0 1.89-.27 2.46-.8.762.328 1.628.33 2.463-.03.985-.421 1.796-1.272 2.255-2.303.854.202 1.83.06 2.72-.433.868-.485 1.496-1.225 1.808-2.09.863.05 1.751-.289 2.485-.986 1.244-1.177 1.587-3.008.867-4.66Z" fill="url(#b)"/><path d="M21.668 15.581h-9.75c-.598 0-1.083.537-1.083 1.199 0 .661.485 1.198 1.083 1.198h9.75c.598 0 1.083-.537 1.083-1.198 0-.662-.485-1.199-1.083-1.199Z" fill="url(#c)"/><path d="M44.23 32.891c-.335-.549-1.007-.7-1.503-.326L39.56 34.92c-.497.37-.629 1.115-.295 1.664.21.343.552.53.901.53.206 0 .416-.065.603-.204l3.167-2.354c.496-.37.628-1.115.295-1.664Z" fill="url(#d)"/><path d="M37.506 38.61c-.776-.675-4.245-4.604-6.39-7.078a1.009 1.009 0 0 0-1.532-.036 1.29 1.29 0 0 0-.032 1.695c.557.642 5.468 6.307 6.61 7.304.197.172.436.256.67.256.318 0 .637-.158.853-.457.37-.518.29-1.273-.18-1.683Z" fill="url(#e)"/><path d="M33.178 41.015c-1.298-1.148-4.559-4.981-5.296-5.868-.407-.49-1.09-.518-1.532-.072a1.292 1.292 0 0 0-.065 1.695c.04.045 3.93 4.693 5.538 6.117.2.175.44.262.676.262.317 0 .633-.156.847-.449.373-.518.298-1.273-.168-1.685Z" fill="url(#f)"/><path d="M28.864 43.429c-1.545-1.44-4.706-5.164-5.323-5.895-.41-.484-1.097-.51-1.532-.057-.438.453-.46 1.21-.052 1.695.888 1.052 3.913 4.6 5.51 6.09.203.19.45.284.697.284.308 0 .616-.147.83-.427.386-.508.327-1.263-.13-1.69Z" fill="url(#g)"/><path d="M12.662 13.512c-1.857-1.946-9.282-2.577-11.514-2.723a1.018 1.018 0 0 0-.808.324c-.217.225-.34.542-.34.872V33.56c0 .661.485 1.198 1.083 1.198h6.5c.468 0 .884-.333 1.03-.827.158-.537 3.89-13.213 4.383-19.445a1.264 1.264 0 0 0-.334-.974Zm-5.87 18.85H2.168V13.27c3.482.305 7.239.966 8.604 1.7-.575 5.25-3.173 14.577-3.979 17.391Z" fill="url(#h)"/><path d="M50.918 13.184c-8.507 0-13.226 2.409-13.423 2.51a1.166 1.166 0 0 0-.578.745 1.32 1.32 0 0 0 .119.973c1.339 2.385 5.531 15.632 6.337 18.864.13.52.557.88 1.045.88h6.5c.598 0 1.083-.538 1.083-1.2V14.383c0-.664-.485-1.198-1.083-1.198Zm-1.084 21.574h-4.606c-1.027-3.701-4.06-13.352-5.752-17.341 1.653-.62 5.204-1.688 10.358-1.822v19.163Z" fill="url(#i)"/></g><defs><linearGradient id="b" x1="3.35" y1="8.105" x2="48.037" y2="60.361" gradientUnits="userSpaceOnUse"><stop stop-color="#1C2D5A"/><stop offset="1" stop-color="#4FC3DD" stop-opacity=".96"/></linearGradient><linearGradient id="c" x1="9.345" y1="15.206" x2="10.443" y2="21.506" gradientUnits="userSpaceOnUse"><stop stop-color="#1C2D5A"/><stop offset="1" stop-color="#4FC3DD" stop-opacity=".96"/></linearGradient><linearGradient id="d" x1="38.414" y1="31.616" x2="44.64" y2="39.68" gradientUnits="userSpaceOnUse"><stop stop-color="#1C2D5A"/><stop offset="1" stop-color="#4FC3DD" stop-opacity=".96"/></linearGradient><linearGradient id="e" x1="28.166" y1="29.66" x2="41.139" y2="43.194" gradientUnits="userSpaceOnUse"><stop stop-color="#1C2D5A"/><stop offset="1" stop-color="#4FC3DD" stop-opacity=".96"/></linearGradient><linearGradient id="f" x1="25.052" y1="33.446" x2="36.4" y2="45.286" gradientUnits="userSpaceOnUse"><stop stop-color="#1C2D5A"/><stop offset="1" stop-color="#4FC3DD" stop-opacity=".96"/></linearGradient><linearGradient id="g" x1="20.717" y1="35.84" x2="32.07" y2="47.681" gradientUnits="userSpaceOnUse"><stop stop-color="#1C2D5A"/><stop offset="1" stop-color="#4FC3DD" stop-opacity=".96"/></linearGradient><linearGradient id="h" x1="-1.625" y1="7.036" x2="27.567" y2="25.309" gradientUnits="userSpaceOnUse"><stop stop-color="#1C2D5A"/><stop offset="1" stop-color="#4FC3DD" stop-opacity=".96"/></linearGradient><linearGradient id="i" x1="34.982" y1="9.432" x2="65.873" y2="31.934" gradientUnits="userSpaceOnUse"><stop stop-color="#1C2D5A"/><stop offset="1" stop-color="#4FC3DD" stop-opacity=".96"/></linearGradient><clipPath id="a"><path fill="#fff" d="M0 0h52v52H0z"/></clipPath></defs></svg>