<svg width="89" height="80" fill="none" xmlns="http://www.w3.org/2000/svg"><path d="M69 52.367C69 70.857 54.496 80 35.802 80 17.108 80 0 65.654 0 47.163 0 28.674 9.113 22.75 17.576 22.75c8.094 0 15.2 7.624 22.132 10.945C48.784 38.045 69 41.883 69 52.367Z" fill="#F09642"/><g clip-path="url(#a)"><path d="m87.802 25.457-6.71-.737a25.035 25.035 0 0 0-1.896-4.52l4.217-5.213c.43-.533.387-1.3-.1-1.783l-7.662-7.57a1.365 1.365 0 0 0-1.802-.1l-5.271 4.17a25.625 25.625 0 0 0-4.57-1.875l-.745-6.637A1.349 1.349 0 0 0 61.917 0H51.083c-.69 0-1.27.513-1.346 1.192l-.745 6.63a25.634 25.634 0 0 0-4.57 1.875l-5.27-4.17a1.365 1.365 0 0 0-1.803.098l-7.661 7.579a1.329 1.329 0 0 0-.1 1.783l4.223 5.213a25.028 25.028 0 0 0-1.896 4.52l-6.71.737A1.345 1.345 0 0 0 24 26.788v10.716c0 .682.52 1.256 1.205 1.331l6.703.737a25.05 25.05 0 0 0 1.896 4.52l-4.217 5.214c-.43.532-.387 1.3.1 1.782l7.662 7.579c.49.48 1.266.518 1.803.09l5.27-4.169a25.615 25.615 0 0 0 4.57 1.875l.745 6.637a1.349 1.349 0 0 0 1.346 1.192h10.834a1.35 1.35 0 0 0 1.346-1.185l.745-6.637a25.637 25.637 0 0 0 4.57-1.875l5.27 4.17a1.365 1.365 0 0 0 1.803-.098l7.654-7.579c.487-.482.53-1.25.1-1.782l-4.216-5.214a25.042 25.042 0 0 0 1.896-4.52l6.71-.737A1.345 1.345 0 0 0 89 37.504V26.788c0-.68-.515-1.253-1.198-1.33Zm-1.51 10.848-6.401.705a1.35 1.35 0 0 0-1.16.987 22.5 22.5 0 0 1-2.325 5.558 1.328 1.328 0 0 0 .114 1.51l4.026 4.977-5.946 5.881-5.032-3.982a1.366 1.366 0 0 0-1.526-.112 23.026 23.026 0 0 1-5.62 2.3c-.54.142-.936.597-.998 1.146l-.712 6.338h-8.41l-.719-6.338a1.344 1.344 0 0 0-.998-1.146 23.022 23.022 0 0 1-5.62-2.3 1.366 1.366 0 0 0-1.526.112l-5.032 3.982-5.946-5.88 4.026-4.971c.35-.432.395-1.032.114-1.51a22.505 22.505 0 0 1-2.325-5.559 1.35 1.35 0 0 0-1.16-.987l-6.408-.704v-8.318l6.408-.711a1.35 1.35 0 0 0 1.16-.988 22.497 22.497 0 0 1 2.325-5.558 1.328 1.328 0 0 0-.114-1.51l-4.026-4.977 5.946-5.881 5.04 3.982c.436.345 1.042.39 1.525.112a23.025 23.025 0 0 1 5.62-2.3c.54-.141.936-.597.998-1.146l.712-6.338h8.403l.712 6.338c.062.55.458 1.005.998 1.147a23.022 23.022 0 0 1 5.62 2.3c.484.277 1.09.232 1.526-.113l5.032-3.982 5.946 5.888-4.026 4.977a1.328 1.328 0 0 0-.113 1.51 22.499 22.499 0 0 1 2.325 5.558 1.35 1.35 0 0 0 1.16.987l6.407.705v8.311Z" fill="#FFFEFC"/><path d="m86.292 36.305-6.401.705a1.35 1.35 0 0 0-1.16.987 22.5 22.5 0 0 1-2.325 5.558 1.328 1.328 0 0 0 .114 1.51l4.026 4.977-5.946 5.881-5.032-3.982a1.366 1.366 0 0 0-1.526-.112 23.026 23.026 0 0 1-5.62 2.3c-.54.142-.936.597-.998 1.146l-.712 6.338h-8.41l-.719-6.338a1.344 1.344 0 0 0-.998-1.146 23.022 23.022 0 0 1-5.62-2.3 1.366 1.366 0 0 0-1.526.112l-5.032 3.982-5.946-5.88 4.026-4.971c.35-.432.395-1.032.114-1.51a22.505 22.505 0 0 1-2.325-5.559 1.35 1.35 0 0 0-1.16-.987l-6.408-.704v-8.318l6.408-.711a1.35 1.35 0 0 0 1.16-.988 22.497 22.497 0 0 1 2.325-5.558 1.328 1.328 0 0 0-.114-1.51l-4.026-4.977 5.946-5.881 5.04 3.982c.436.345 1.042.39 1.525.112a23.025 23.025 0 0 1 5.62-2.3c.54-.141.936-.597.998-1.146l.712-6.338h8.403l.712 6.338c.062.55.458 1.005.998 1.147a23.022 23.022 0 0 1 5.62 2.3c.484.277 1.09.232 1.526-.113l5.032-3.982 5.946 5.888-4.026 4.977a1.328 1.328 0 0 0-.113 1.51 22.499 22.499 0 0 1 2.325 5.558 1.35 1.35 0 0 0 1.16.987l6.407.705v8.311Z" fill="#FFFEFC"/><path d="M73.042 22.99c-5.112-9.038-16.664-12.265-25.801-7.208-9.138 5.056-12.4 16.483-7.288 25.52a1.365 1.365 0 0 0 2.138.293l8.847-8.75 3.125 4.123a1.365 1.365 0 0 0 2.04.143l8.523-8.429v4.804h2.708v-8.037c0-.74-.606-1.34-1.354-1.34h-8.125v2.68h4.856l-7.418 7.337-3.125-4.123a1.358 1.358 0 0 0-.988-.536 1.387 1.387 0 0 0-1.053.393l-8.61 8.514a15.903 15.903 0 0 1 2.408-16.383c5.678-6.852 15.897-7.854 22.826-2.238 6.927 5.616 7.94 15.724 2.263 22.576a16.273 16.273 0 0 1-1.68 1.745v-7.91h-2.708v9.866c-.868.5-1.775.914-2.708 1.242v-8.429h-2.709v9.129c-.894.151-1.8.229-2.708.23v-5.34h-2.708v5.123a16.27 16.27 0 0 1-2.709-.689v-7.113h-2.708v5.88a16.346 16.346 0 0 1-2.187-1.495l-1.721 2.07a19.116 19.116 0 0 0 21.287 1.873c9.137-5.057 12.4-16.483 7.287-25.521Z" fill="#39379F"/></g><defs><clipPath id="a"><path fill="#fff" transform="translate(24)" d="M0 0h65v64.292H0z"/></clipPath></defs></svg>